# xmcd
#
# Track frame offsets:
#	150
#	21609
#	42976
#	61206
#	79728
#	100870
#	120249
#	147134
#	160811
#	182720
#	198952
#	217939
#	244966
#
# Disc length: 3405 seconds
#
# Revision: 1
# Processed by: cddbd v1.5.2PL0 Copyright (c) Steve Scherf et al.
# Submitted via: audiograbber 1.83.01
#
DISCID=ad0d4b0d
DTITLE=John Hammond - Wicked Grin
DYEAR=2001
DGENRE=Blues
TTITLE0=2:19
TTITLE1=Heart Attack and Vine
TTITLE2=Clap Hands
TTITLE3=Til The Money Runs Out
TTITLE4=16 Shells From A 30-06
TTITLE5=Buzz Fledderjohn
TTITLE6=Get Behind The Mule
TTITLE7=Shore Leave
TTITLE8=Fannin Street
TTITLE9=Jockey Full Of Bourbon
TTITLE10=Big Black Mariah
TTITLE11=Murder In The Red Barn
TTITLE12=I Know I've Been Changed
EXTD=
EXTT0=
EXTT1=
EXTT2=
EXTT3=
EXTT4=
EXTT5=
EXTT6=
EXTT7=
EXTT8=
EXTT9=
EXTT10=
EXTT11=
EXTT12=
PLAYORDER=
